<mxfile host="app.diagrams.net" agent="Mozilla/5.0 (Windows NT 10.0; Win64; x64) AppleWebKit/537.36 (KHTML, like Gecko) Chrome/136.0.0.0 Safari/537.36 Edg/136.0.0.0" version="27.1.1">
  <diagram name="PÃ¡gina-1" id="XFAx3lLeM-dq-6Pw3mFJ">
    <mxGraphModel dx="2554" dy="952" grid="0" gridSize="10" guides="1" tooltips="1" connect="1" arrows="1" fold="1" page="1" pageScale="1" pageWidth="827" pageHeight="1169" math="0" shadow="0">
      <root>
        <mxCell id="0" />
        <mxCell id="1" parent="0" />
        <mxCell id="bmErZ5xI4oyNtRlQP5P7-46" value="" style="rounded=0;whiteSpace=wrap;html=1;fillStyle=solid;strokeColor=#b85450;fillColor=#f8cecc;" vertex="1" parent="1">
          <mxGeometry x="-794" y="112" width="1373" height="423" as="geometry" />
        </mxCell>
        <mxCell id="bmErZ5xI4oyNtRlQP5P7-11" style="edgeStyle=orthogonalEdgeStyle;rounded=0;orthogonalLoop=1;jettySize=auto;html=1;" edge="1" parent="1" source="bmErZ5xI4oyNtRlQP5P7-6" target="bmErZ5xI4oyNtRlQP5P7-8">
          <mxGeometry relative="1" as="geometry">
            <Array as="points">
              <mxPoint x="-386" y="348" />
            </Array>
          </mxGeometry>
        </mxCell>
        <mxCell id="bmErZ5xI4oyNtRlQP5P7-16" style="edgeStyle=orthogonalEdgeStyle;rounded=0;orthogonalLoop=1;jettySize=auto;html=1;" edge="1" parent="1" source="bmErZ5xI4oyNtRlQP5P7-6" target="bmErZ5xI4oyNtRlQP5P7-15">
          <mxGeometry relative="1" as="geometry" />
        </mxCell>
        <mxCell id="bmErZ5xI4oyNtRlQP5P7-6" value="TareaController" style="rounded=0;whiteSpace=wrap;html=1;" vertex="1" parent="1">
          <mxGeometry x="-446" y="258" width="120" height="60" as="geometry" />
        </mxCell>
        <mxCell id="bmErZ5xI4oyNtRlQP5P7-9" style="edgeStyle=orthogonalEdgeStyle;rounded=0;orthogonalLoop=1;jettySize=auto;html=1;entryX=0.5;entryY=0;entryDx=0;entryDy=0;" edge="1" parent="1" source="bmErZ5xI4oyNtRlQP5P7-7" target="bmErZ5xI4oyNtRlQP5P7-6">
          <mxGeometry relative="1" as="geometry" />
        </mxCell>
        <mxCell id="bmErZ5xI4oyNtRlQP5P7-7" value="TareaRequest" style="rounded=0;whiteSpace=wrap;html=1;" vertex="1" parent="1">
          <mxGeometry x="-626" y="198" width="120" height="60" as="geometry" />
        </mxCell>
        <mxCell id="bmErZ5xI4oyNtRlQP5P7-13" style="edgeStyle=orthogonalEdgeStyle;rounded=0;orthogonalLoop=1;jettySize=auto;html=1;" edge="1" parent="1" source="bmErZ5xI4oyNtRlQP5P7-8">
          <mxGeometry relative="1" as="geometry">
            <mxPoint x="-682.0000305175781" y="348" as="targetPoint" />
          </mxGeometry>
        </mxCell>
        <mxCell id="bmErZ5xI4oyNtRlQP5P7-8" value="TareaResponse" style="rounded=0;whiteSpace=wrap;html=1;" vertex="1" parent="1">
          <mxGeometry x="-626" y="318" width="120" height="60" as="geometry" />
        </mxCell>
        <mxCell id="bmErZ5xI4oyNtRlQP5P7-15" value="TareaService" style="rounded=0;whiteSpace=wrap;html=1;" vertex="1" parent="1">
          <mxGeometry x="-238" y="258" width="120" height="60" as="geometry" />
        </mxCell>
        <mxCell id="bmErZ5xI4oyNtRlQP5P7-18" style="edgeStyle=orthogonalEdgeStyle;rounded=0;orthogonalLoop=1;jettySize=auto;html=1;strokeWidth=2;dashed=1;endArrow=block;endFill=0;" edge="1" parent="1" source="bmErZ5xI4oyNtRlQP5P7-17" target="bmErZ5xI4oyNtRlQP5P7-15">
          <mxGeometry relative="1" as="geometry" />
        </mxCell>
        <mxCell id="bmErZ5xI4oyNtRlQP5P7-22" value="&lt;font style=&quot;font-size: 13px;&quot;&gt;implemts&lt;/font&gt;" style="edgeLabel;html=1;align=center;verticalAlign=middle;resizable=0;points=[];" vertex="1" connectable="0" parent="bmErZ5xI4oyNtRlQP5P7-18">
          <mxGeometry x="-0.0743" y="1" relative="1" as="geometry">
            <mxPoint x="14" y="-4" as="offset" />
          </mxGeometry>
        </mxCell>
        <mxCell id="bmErZ5xI4oyNtRlQP5P7-21" style="edgeStyle=orthogonalEdgeStyle;rounded=0;orthogonalLoop=1;jettySize=auto;html=1;dashed=1;endArrow=classic;endFill=0;" edge="1" parent="1" source="bmErZ5xI4oyNtRlQP5P7-17">
          <mxGeometry relative="1" as="geometry">
            <mxPoint x="11" y="367" as="targetPoint" />
          </mxGeometry>
        </mxCell>
        <mxCell id="bmErZ5xI4oyNtRlQP5P7-28" style="edgeStyle=orthogonalEdgeStyle;rounded=0;orthogonalLoop=1;jettySize=auto;html=1;entryX=0;entryY=0.5;entryDx=0;entryDy=0;endArrow=none;startFill=0;" edge="1" parent="1" source="bmErZ5xI4oyNtRlQP5P7-17" target="bmErZ5xI4oyNtRlQP5P7-26">
          <mxGeometry relative="1" as="geometry">
            <Array as="points">
              <mxPoint x="131" y="192" />
              <mxPoint x="131" y="301" />
              <mxPoint x="170" y="301" />
            </Array>
          </mxGeometry>
        </mxCell>
        <mxCell id="bmErZ5xI4oyNtRlQP5P7-17" value="CachedTareaService" style="rounded=0;whiteSpace=wrap;html=1;" vertex="1" parent="1">
          <mxGeometry x="-67" y="160" width="157" height="64" as="geometry" />
        </mxCell>
        <mxCell id="bmErZ5xI4oyNtRlQP5P7-20" style="edgeStyle=orthogonalEdgeStyle;rounded=0;orthogonalLoop=1;jettySize=auto;html=1;strokeWidth=2;dashed=1;endArrow=block;endFill=0;" edge="1" parent="1" source="bmErZ5xI4oyNtRlQP5P7-19" target="bmErZ5xI4oyNtRlQP5P7-15">
          <mxGeometry relative="1" as="geometry" />
        </mxCell>
        <mxCell id="bmErZ5xI4oyNtRlQP5P7-24" value="&lt;span style=&quot;font-size: 13px;&quot;&gt;implemts&lt;/span&gt;" style="edgeLabel;html=1;align=center;verticalAlign=middle;resizable=0;points=[];" vertex="1" connectable="0" parent="bmErZ5xI4oyNtRlQP5P7-20">
          <mxGeometry x="-0.2251" y="-5" relative="1" as="geometry">
            <mxPoint x="6" y="2" as="offset" />
          </mxGeometry>
        </mxCell>
        <mxCell id="bmErZ5xI4oyNtRlQP5P7-29" style="edgeStyle=orthogonalEdgeStyle;rounded=0;orthogonalLoop=1;jettySize=auto;html=1;" edge="1" parent="1">
          <mxGeometry relative="1" as="geometry">
            <mxPoint x="86" y="401" as="sourcePoint" />
            <mxPoint x="170" y="302" as="targetPoint" />
            <Array as="points">
              <mxPoint x="131" y="401" />
              <mxPoint x="131" y="302" />
            </Array>
          </mxGeometry>
        </mxCell>
        <mxCell id="bmErZ5xI4oyNtRlQP5P7-19" value="CachedTareaServiceProxy" style="rounded=0;whiteSpace=wrap;html=1;" vertex="1" parent="1">
          <mxGeometry x="-71" y="368" width="157" height="64" as="geometry" />
        </mxCell>
        <mxCell id="bmErZ5xI4oyNtRlQP5P7-31" style="edgeStyle=orthogonalEdgeStyle;rounded=0;orthogonalLoop=1;jettySize=auto;html=1;" edge="1" parent="1" source="bmErZ5xI4oyNtRlQP5P7-26" target="bmErZ5xI4oyNtRlQP5P7-30">
          <mxGeometry relative="1" as="geometry" />
        </mxCell>
        <mxCell id="bmErZ5xI4oyNtRlQP5P7-26" value="TareaRepository" style="rounded=0;whiteSpace=wrap;html=1;" vertex="1" parent="1">
          <mxGeometry x="170" y="265" width="157" height="64" as="geometry" />
        </mxCell>
        <mxCell id="bmErZ5xI4oyNtRlQP5P7-30" value="Tarea" style="rounded=0;whiteSpace=wrap;html=1;" vertex="1" parent="1">
          <mxGeometry x="391" y="265" width="157" height="64" as="geometry" />
        </mxCell>
        <mxCell id="bmErZ5xI4oyNtRlQP5P7-32" style="edgeStyle=orthogonalEdgeStyle;rounded=0;orthogonalLoop=1;jettySize=auto;html=1;entryX=0;entryY=0.5;entryDx=0;entryDy=0;" edge="1" parent="1" target="bmErZ5xI4oyNtRlQP5P7-7">
          <mxGeometry relative="1" as="geometry">
            <mxPoint x="-632" y="227.72" as="targetPoint" />
            <mxPoint x="-684" y="228" as="sourcePoint" />
            <Array as="points" />
          </mxGeometry>
        </mxCell>
        <mxCell id="bmErZ5xI4oyNtRlQP5P7-33" value="Actor" style="shape=umlActor;verticalLabelPosition=bottom;verticalAlign=top;html=1;outlineConnect=0;" vertex="1" parent="1">
          <mxGeometry x="-758" y="194" width="30" height="60" as="geometry" />
        </mxCell>
        <mxCell id="bmErZ5xI4oyNtRlQP5P7-35" style="edgeStyle=orthogonalEdgeStyle;rounded=0;orthogonalLoop=1;jettySize=auto;html=1;entryX=0.5;entryY=1;entryDx=0;entryDy=0;dashed=1;" edge="1" parent="1" source="bmErZ5xI4oyNtRlQP5P7-34" target="bmErZ5xI4oyNtRlQP5P7-30">
          <mxGeometry relative="1" as="geometry" />
        </mxCell>
        <mxCell id="bmErZ5xI4oyNtRlQP5P7-45" value="&amp;lt;&amp;lt;builder&amp;gt;&amp;gt;" style="edgeLabel;html=1;align=center;verticalAlign=middle;resizable=0;points=[];" vertex="1" connectable="0" parent="bmErZ5xI4oyNtRlQP5P7-35">
          <mxGeometry x="-0.1905" y="4" relative="1" as="geometry">
            <mxPoint as="offset" />
          </mxGeometry>
        </mxCell>
        <mxCell id="bmErZ5xI4oyNtRlQP5P7-34" value="TareaBuilder" style="rounded=0;whiteSpace=wrap;html=1;" vertex="1" parent="1">
          <mxGeometry x="409.5" y="413" width="120" height="60" as="geometry" />
        </mxCell>
        <mxCell id="bmErZ5xI4oyNtRlQP5P7-47" value="Verifica si esta en &lt;br&gt;cache" style="shape=note;whiteSpace=wrap;html=1;backgroundOutline=1;fontColor=#000000;darkOpacity=0.05;fillColor=#FFF9B2;strokeColor=none;fillStyle=solid;direction=west;gradientDirection=north;gradientColor=#FFF2A1;shadow=1;size=20;pointerEvents=1;" vertex="1" parent="1">
          <mxGeometry x="101" y="422" width="123" height="93" as="geometry" />
        </mxCell>
      </root>
    </mxGraphModel>
  </diagram>
</mxfile>
